<svg width="128" height="128" viewBox="0 0 128 128" fill="none" xmlns="http://www.w3.org/2000/svg">
<path d="M28.66 105.23L15.94 99.64C15.94 99.64 15.38 102.7 13.96 104.34C12.36 106.18 9.62 107.17 9.62 107.17C9.62 107.17 11.11 108.89 11.21 109.3C11.31 109.71 14.68 121.14 14.68 121.14C14.68 121.14 17.33 122.87 18.15 123.49C18.97 124.11 21.01 124.61 22.03 122.98C23.05 121.35 24.72 119.03 26.01 117.47C27.5 115.66 29.06 114.49 29.06 114.49C29.06 114.49 34.89 116.96 42.95 116.96C51.01 116.96 60.09 113.49 70.4 105.74C80.71 97.99 92.37 86.48 95.43 84.03C98.49 81.58 104.89 76.96 108.06 76.15C111.23 75.34 113.88 75.95 113.88 77.99C113.88 80.03 112.55 81.26 113.57 81.97C114.59 82.68 117.96 79.93 117.96 79.62C117.96 79.31 117.65 69.93 117.65 69.93L108.76 64.16C108.76 64.16 111.19 61.09 113.26 58.5C114.88 56.47 117.44 53.81 117.44 53.81C117.44 53.81 117.54 50.24 116.93 50.54C116.32 50.84 90.91 59.72 85.7 64.21C80.49 68.7 59.68 88.7 59.38 88.8C59.08 88.9 28.66 105.23 28.66 105.23V105.23Z" fill="#307B32"/>
<path d="M9.63 107.14C8.33 107.75 4.46 109.09 4.67 111.84C4.87 114.59 7.57 116.41 9.79 117.89C12 119.37 14.69 121.16 14.69 121.16C14.69 121.16 18.98 119.33 19.18 114.94C19.28 112.7 16.94 111.16 15.4 109.74C13.86 108.32 11.89 106.05 11.89 106.05C11.89 106.05 11.01 106.5 9.63 107.14ZM41.15 10.11C41.16 10.61 46.51 9.89999 48.94 12.28C51.31 14.6 52.1 19.08 48.25 24.8C44.4 30.52 34.84 41.96 30.21 47.78C25.58 53.6 14.92 66.21 13.05 78.91C11.09 92.22 13.46 101.97 20.4 107.79C27.34 113.61 36.83 117.48 52.54 111.06C65.15 105.9 72.54 95.86 84.38 86.26C96.22 76.66 103.67 71.87 110.71 71.57C117.75 71.26 117.85 76.67 116.93 78.61C116.01 80.55 113.91 82.26 114.69 81.98C115.65 81.63 118.87 80.65 120.51 76.27C122.14 71.88 120 66.58 115.31 64.54C110.62 62.5 100.51 64.44 92.66 68.62C84.8 72.8 76.54 78.93 75.41 79.84C74.29 80.76 72.04 80.04 73.98 77.8C75.92 75.56 86.23 65.96 97.65 60.96C109.07 55.96 117.45 53.82 117.45 53.82C117.45 53.82 120.92 50.45 121.94 49.53C122.96 48.61 124.49 47.9 124.29 46.88C124.09 45.86 119.42 44.44 113.11 48.16C113.09 48.17 67.96 51.68 67.96 50.86C67.96 50.04 73.9 11.26 73.8 9.82999C73.7 8.39999 73.15 7.36999 72.3 7.90999C71.53 8.39999 68.62 12.76 67.35 14.42C66.25 15.85 64.59 17.79 64.49 17.48C64.39 17.17 63.7 8.03999 58.46 5.22999C49.68 0.539991 41.09 8.04999 41.15 10.11Z" fill="#649726"/>
<path d="M46.72 71.15C43.46 75.33 19.07 83.8 19.07 83.8C19.07 83.8 20.33 75.73 24.78 66.76C31.83 52.56 54.06 33.83 59.47 22.37C62.68 15.57 61.41 10.33 58.76 7.36999C56.11 4.40999 53.5 3.72999 53.5 3.72999C53.5 3.72999 61.11 3.49999 63.97 10.54C66.83 17.58 64.38 22.58 64.38 22.58C64.38 22.58 67.75 18.6 69.99 15.34C72.23 12.07 73.66 9.00999 73.66 9.00999C73.66 9.00999 75.19 12.48 74.17 17.68C73.15 22.88 71.72 25.74 71.72 25.74L46.72 71.15Z" fill="#307B32"/>
<path d="M97.64 8.08999C97.64 8.08999 99.6 4.73999 103.25 4.30999C107.64 3.79999 110.09 6.34999 110.09 6.34999C110.09 6.34999 113.84 2.36999 118.6 5.38999C122.99 8.17999 120.52 13.12 120.52 13.12C120.52 13.12 124.18 13.99 124.09 18.65C124 23.09 121.22 24.82 121.22 24.82L102.14 50.74L89.08 60.23L81.94 64.82L68.27 74.31L38.07 96.76C38.07 96.76 27.13 103.1 21.64 97.07C18.58 93.7 18.37 89.72 18.58 86.97C18.88 82.9 19.7 80.92 21.54 78.81C23.94 76.06 26.64 75.34 26.64 75.34C26.64 75.34 25.66 71.16 28.46 66.96C31.24 62.8 35.52 63.2 35.52 63.2C35.52 63.2 35.37 57.46 38.64 54.5C41.97 51.48 43.79 52.89 43.99 52.38C44.19 51.87 43.5 48.38 47.48 44.84C50.34 42.3 54.19 42.99 54.19 42.99C54.19 42.99 53.45 38.2 57.21 34.52C61.16 30.65 64.9 32.89 64.9 32.89C64.9 32.89 64.19 28.14 66.79 25.23C69.89 21.77 73.06 21.99 73.06 21.99C73.06 21.99 73.58 17.71 76.97 14.77C79.54 12.53 83.89 12.9 84.19 12.49C84.49 12.08 85.86 8.20999 89.94 6.87999C94.27 5.45999 97.64 8.08999 97.64 8.08999V8.08999Z" fill="#FFC01E"/>
<path d="M113.7 27.45C113.7 27.45 113.17 31.93 111.64 33.92C108.87 37.53 106.14 36.87 106.14 36.87C106.14 36.87 107.32 41.44 104.67 44.67C101.71 48.27 97.45 47.81 97.45 47.81C97.45 47.81 97.68 51.7 95.52 53.91C92.28 57.23 89.68 56.57 89.68 56.57C89.68 56.57 89.68 58.71 88 60.76C87.63 61.21 98.83 54.27 102.39 52.57C105.95 50.86 113.13 48.16 113.13 48.16C113.13 48.16 117.18 45.67 118.18 42.4C119.18 39.13 118.54 36.35 118.82 35.36C119.1 34.37 120.95 33.15 121.81 30.31C122.67 27.47 121.63 24.47 121.63 24.47C121.63 24.47 120.83 25.84 118.74 26.74C116.11 27.86 113.7 27.45 113.7 27.45V27.45ZM102.61 11.52C102.61 11.52 101.83 12.87 101.33 13.73C100.83 14.58 100.26 15.72 100.26 15.72C100.26 15.72 98.98 15.65 97.91 15.58C96.84 15.51 95.05 15.64 95.05 15.64C95.05 15.64 95.9 14.48 96.47 13.77C97.04 13.06 97.28 11.81 97.28 11.81C97.28 11.81 98.28 11.95 99.7 11.88C101.11 11.8 102.61 11.52 102.61 11.52V11.52ZM31.12 84.29C31.12 84.29 31.33 81.66 31.4 80.52C31.47 79.38 31.19 77.39 31.19 77.39C31.19 77.39 36.03 76.82 38.02 73.41C40.01 70 39.66 67.51 39.66 67.51C39.66 67.51 44.71 68.36 47.48 63.38C50.25 58.4 48.4 55.7 48.83 55.91C49.26 56.12 54.17 55.48 56.73 51.71C59.29 47.94 58.65 45.95 58.65 45.95C58.65 45.95 62.92 45.67 64.98 42.54C67.04 39.41 66.54 36.28 66.54 36.28C66.54 36.28 70.84 36.12 73.11 33.56C75.39 31 75.76 26.85 75.76 26.85C75.76 26.85 78.11 27.36 81.88 25.23C85.65 23.1 86.66 18.85 86.66 18.85C86.66 18.85 87.97 19.11 89.18 18.93C90.67 18.71 91.51 18.2 91.51 18.2C91.51 18.2 90.73 18.93 90.18 21.04C89.78 22.57 89.57 24.05 89.57 24.05C89.57 24.05 86.22 22.58 82.81 27.04C80.74 29.76 80.84 33 80.84 33C80.84 33 77.58 32.42 74.65 35.99C71.95 39.27 72.44 41.97 72.44 41.97C72.44 41.97 68.67 41.61 65.97 45.17C63.02 49.05 63.91 52.99 63.91 52.99C63.91 52.99 59.22 52.49 56.94 55.48C54.66 58.47 55.02 62.45 55.02 62.45C55.02 62.45 51.66 62.06 48.97 65.3C46.55 68.22 46.91 70.28 46.91 70.28C46.91 70.28 42.64 70.21 39.94 73.77C37.24 77.33 37.24 81.45 37.24 81.45C37.24 81.45 35.32 81.59 33.83 82.3C32.33 83.01 31.12 84.29 31.12 84.29V84.29ZM44.06 88.27C44.06 88.27 47.69 89.19 50.25 85.07C52.81 80.94 52.67 77.32 52.67 77.32C52.67 77.32 56.72 77.46 59.14 74.33C61.56 71.2 61.69 67.17 61.69 67.17C61.69 67.17 65.45 67.32 67.96 63.52C70 60.44 70.02 57.33 70.02 57.33C70.02 57.33 73.08 56.76 75.5 53.84C77.92 50.92 77.42 46.87 77.42 46.87C77.42 46.87 81.62 47.15 84.04 43.31C86.46 39.47 85.82 37.12 85.82 37.12C85.82 37.12 88.99 37.55 91.77 34.06C94.54 30.57 93.36 27.58 93.36 27.58C93.36 27.58 97.63 28.5 100.26 25.52C102.89 22.53 103.15 18.93 103.39 18.98C104.79 19.24 108.49 17.6 108.49 17.6C108.49 17.6 108.13 20.73 108.28 22.66C108.3 22.88 104.31 22.54 101.75 26.81C99.19 31.08 100.19 33.92 100.19 33.92C100.19 33.92 96.46 34.27 94.68 37.47C92.9 40.67 93.51 44.23 93.51 44.23C93.51 44.23 90.13 43.02 87.39 46.65C85.6 49.02 85.61 51.7 85.61 51.7C85.61 51.7 81.82 50.2 78.94 55C76.84 58.5 77.78 62.44 77.78 62.44C77.78 62.44 74.15 62.23 71.24 65.57C68.32 68.91 68.26 74.3 68.26 74.3C68.26 74.3 61.35 80.16 55.16 85C50.1 88.95 37.56 97.14 38.05 96.76C40.09 95.15 41.15 94.12 42.36 92.41C43.57 90.71 44.06 88.27 44.06 88.27V88.27Z" fill="#F99628"/>
<path d="M91.44 9.24003C89.72 8.52003 87.74 9.17003 87.17 11.66C86.78 13.36 87.17 14.79 88.66 15.43C90.33 16.14 91.63 14.73 92.22 13.51C93.07 11.73 92.79 9.81003 91.44 9.24003ZM81.76 15.65C80.56 14.7 78.13 15.29 76.92 17.93C75.71 20.57 76.27 23.01 78.48 23.12C81.41 23.26 84.47 17.78 81.76 15.65V15.65ZM71.31 25.11C70.1 24.35 67.79 24.85 66.69 27.24C65.84 29.09 66.22 31.16 67.61 31.79C69.03 32.43 70.9 31.47 71.88 29.51C72.73 27.81 73.01 26.17 71.31 25.11ZM62.91 34.57C61.11 33.34 58.71 34.29 57.22 36.63C55.73 38.98 55.87 41.68 57.29 42.53C58.71 43.38 61.4 42.8 62.98 40.18C64.41 37.84 64.48 35.63 62.91 34.57ZM52.17 45.88C50.89 44.86 48.47 45.6 47.4 47.59C46.33 49.58 46.93 51.04 48.04 51.86C49.39 52.86 51.03 52.36 52.38 50.58C53.73 48.8 53.24 46.73 52.17 45.88V45.88ZM44.41 55.47C43.33 54.49 40.92 54.76 39.64 56.68C38.36 58.6 38.79 60.52 40.14 61.37C41.49 62.22 43.41 61.16 44.41 59.95C45.4 58.74 45.9 56.82 44.41 55.47V55.47ZM33.68 66.92C32.22 65.93 30.19 67.06 29.48 68.2C28.77 69.34 28.7 70.97 30.12 72.04C31.54 73.11 33.53 72.32 34.25 71.26C34.96 70.19 35.67 68.27 33.68 66.92ZM40.58 77.11C39.68 78.83 39.87 80.45 41.01 81.45C42.15 82.45 44.14 81.88 45.35 79.96C45.97 78.97 46.2 76.83 44.71 75.83C43.21 74.83 41.29 75.75 40.58 77.11V77.11ZM51.1 68.43C49.98 69.88 50.1 71.63 51.1 72.56C52.1 73.48 54.59 72.92 55.51 71.42C56.29 70.14 56.15 68.65 55.01 67.65C54.11 66.85 52.31 66.86 51.1 68.43ZM59.29 61.17C60.61 62.18 62.42 61.53 63.27 60.67C64.12 59.81 64.91 57.82 63.77 56.54C62.63 55.26 60.5 55.69 59.29 56.97C58.08 58.26 58.08 60.25 59.29 61.17ZM67.32 46.02C66.18 47.82 65.68 50.86 67.68 51.92C69.81 53.06 72.09 50.71 73.09 49.07C74.09 47.43 74.09 45.09 72.45 44.16C70.62 43.14 68.67 43.89 67.32 46.02ZM75.43 37.77C74.16 39.78 73.51 42.32 75.15 43.6C76.55 44.7 78.99 43.46 80.34 41.54C81.69 39.62 81.98 37.49 80.48 36.13C78.99 34.78 76.64 35.85 75.43 37.77ZM83.83 28.17C82.63 29.56 82.27 31.58 83.55 32.72C84.83 33.86 86.54 33.72 87.89 32.01C89.24 30.3 89.17 28.38 87.68 27.39C86.35 26.51 84.75 27.1 83.83 28.17V28.17Z" fill="#FBE36A"/>
</svg>
